<?xml version="1.0" encoding="UTF-8"?>
<svg id="Layer_1" data-name="Layer 1" xmlns="http://www.w3.org/2000/svg" xmlns:xlink="http://www.w3.org/1999/xlink" viewBox="0 0 1920 1142.96">
  <defs>
    <style>
      .cls-1 {
        fill: url(#linear-gradient);
      }

      .cls-2 {
        fill: url(#linear-gradient-2);
      }
    </style>
    <linearGradient id="linear-gradient" x1="556.09" y1="487.63" x2="1261.76" y2="492.9" gradientUnits="userSpaceOnUse">
      <stop offset="0" stop-color="#801314"/>
      <stop offset=".07" stop-color="#861416"/>
      <stop offset=".46" stop-color="#a91d22"/>
      <stop offset=".79" stop-color="#bf2329"/>
      <stop offset="1" stop-color="#c7252c"/>
    </linearGradient>
    <linearGradient id="linear-gradient-2" x1="557.38" y1="313.53" x2="1263.06" y2="318.79" xlink:href="#linear-gradient"/>
  </defs>
  <g>
    <path d="M170.14,756.82c-3.82-3.18-7.65-4.78-11.46-4.78H71.24c-3.82,0-7.65,1.59-11.46,4.78l-5.74,4.78c-3.82,3.19-5.73,7.17-5.73,11.94v124.22c0,4.78,1.91,8.76,5.73,11.94l5.74,4.78c3.82,3.19,7.64,4.78,11.46,4.78h87.43c3.82,0,7.64-1.59,11.46-4.78l5.73-4.78c3.82-3.18,5.74-7.17,5.74-11.94v-124.22c0-4.78-1.91-8.76-5.74-11.94l-5.73-4.78Zm-8.6,135.93c0,2.39-.12,3.94-.36,4.66-.24,.72-1.08,1.64-2.51,2.75-1.43,1.12-2.55,1.79-3.34,2.03-.8,.24-2.63,.36-5.49,.36H80.08c-2.87,0-4.7-.12-5.49-.36-.8-.24-1.91-.91-3.34-2.03-1.43-1.11-2.27-2.03-2.51-2.75-.24-.72-.36-2.27-.36-4.66v-114.19c0-2.39,.12-3.94,.36-4.66,.24-.72,1.08-1.63,2.51-2.75,1.43-1.11,2.55-1.79,3.34-2.03,.8-.24,2.63-.36,5.49-.36h69.76c2.87,0,4.7,.12,5.49,.36,.79,.24,1.91,.92,3.34,2.03,1.43,1.12,2.27,2.03,2.51,2.75,.24,.72,.36,2.27,.36,4.66v114.19Z"/>
    <polygon points="249.44 752.04 229.38 752.04 229.38 919.26 332.58 919.26 332.58 902.54 249.44 902.54 249.44 752.04"/>
    <polygon points="389.43 768.76 442.46 768.76 442.46 919.26 462.53 919.26 462.53 768.76 515.56 768.76 515.56 752.04 389.43 752.04 389.43 768.76"/>
    <polygon points="538.25 919.26 645.27 919.26 645.27 903.4 645.27 902.54 645.27 894.02 631.98 894.02 631.98 902.54 558.32 902.54 558.32 842.82 631.89 842.82 631.89 826.1 558.32 826.1 558.32 768.76 631.98 768.76 631.98 778.14 645.27 778.14 645.27 768.76 645.27 752.04 538.25 752.04 538.25 919.26"/>
    <path d="M798.39,756.82c-3.82-3.18-7.64-4.78-11.46-4.78h-76.92c-3.82,0-7.65,1.59-11.46,4.78l-5.74,4.78c-3.82,3.19-5.73,7.17-5.73,11.94v124.22c0,4.78,1.91,8.76,5.73,11.94l5.74,4.78c3.82,3.19,7.64,4.78,11.46,4.78h76.92c3.82,0,7.64-1.59,11.46-4.78l5.74-4.78c3.82-3.18,5.73-7.17,5.73-11.94v-9.56h-20.07v4.54c0,2.39-.12,3.94-.36,4.66-.24,.72-1.08,1.64-2.51,2.75-1.43,1.12-2.55,1.79-3.34,2.03-.8,.24-2.63,.36-5.49,.36h-59.24c-2.87,0-4.7-.12-5.49-.36-.8-.24-1.91-.91-3.34-2.03-1.43-1.11-2.27-2.03-2.51-2.75-.24-.72-.36-2.27-.36-4.66v-114.19c0-2.39,.12-3.94,.36-4.66,.24-.72,1.08-1.63,2.51-2.75,1.43-1.11,2.55-1.79,3.34-2.03,.8-.24,2.63-.36,5.49-.36h59.24c2.87,0,4.7,.12,5.49,.36,.79,.24,1.91,.92,3.34,2.03,1.43,1.12,2.27,2.03,2.51,2.75,.24,.72,.36,2.27,.36,4.66v4.54h20.07v-9.55c0-4.78-1.91-8.76-5.73-11.94l-5.74-4.78Z"/>
    <path d="M952,876.5c0,3.82,.56,7.65,1.67,11.47l-.72,.24-87.43-136.16h-20.07v167.22h20.07v-122.55c0-3.82-.56-7.64-1.67-11.47l.72-.24,87.43,134.25h20.07v-167.22h-20.07v124.46Z"/>
    <path d="M1141.67,756.82c-3.82-3.18-7.65-4.78-11.46-4.78h-87.43c-3.82,0-7.65,1.59-11.46,4.78l-5.74,4.78c-3.82,3.19-5.73,7.17-5.73,11.94v124.22c0,4.78,1.91,8.76,5.73,11.94l5.74,4.78c3.82,3.19,7.64,4.78,11.46,4.78h87.43c3.82,0,7.64-1.59,11.46-4.78l5.73-4.78c3.82-3.18,5.74-7.17,5.74-11.94v-124.22c0-4.78-1.91-8.76-5.74-11.94l-5.73-4.78Zm-8.6,135.93c0,2.39-.12,3.94-.36,4.66-.24,.72-1.08,1.64-2.51,2.75-1.43,1.12-2.55,1.79-3.34,2.03-.8,.24-2.63,.36-5.49,.36h-69.76c-2.87,0-4.7-.12-5.49-.36-.8-.24-1.91-.91-3.34-2.03-1.43-1.11-2.27-2.03-2.51-2.75-.24-.72-.36-2.27-.36-4.66v-114.19c0-2.39,.12-3.94,.36-4.66,.24-.72,1.08-1.63,2.51-2.75,1.43-1.11,2.55-1.79,3.34-2.03,.8-.24,2.63-.36,5.49-.36h69.76c2.87,0,4.7,.12,5.49,.36,.79,.24,1.91,.92,3.34,2.03,1.43,1.12,2.27,2.03,2.51,2.75,.24,.72,.36,2.27,.36,4.66v114.19Z"/>
    <polygon points="1220.98 752.04 1200.91 752.04 1200.91 919.26 1304.11 919.26 1304.11 902.54 1220.98 902.54 1220.98 752.04"/>
    <path d="M1448.39,756.82c-3.82-3.18-7.65-4.78-11.46-4.78h-87.43c-3.82,0-7.65,1.59-11.46,4.78l-5.74,4.78c-3.82,3.19-5.73,7.17-5.73,11.94v124.22c0,4.78,1.91,8.76,5.73,11.94l5.74,4.78c3.82,3.19,7.64,4.78,11.46,4.78h87.43c3.82,0,7.64-1.59,11.46-4.78l5.73-4.78c3.82-3.18,5.74-7.17,5.74-11.94v-124.22c0-4.78-1.91-8.76-5.74-11.94l-5.73-4.78Zm-8.6,135.93c0,2.39-.12,3.94-.36,4.66-.24,.72-1.08,1.64-2.51,2.75-1.43,1.12-2.55,1.79-3.34,2.03-.8,.24-2.63,.36-5.49,.36h-69.76c-2.87,0-4.7-.12-5.49-.36-.8-.24-1.91-.91-3.34-2.03-1.43-1.11-2.27-2.03-2.51-2.75-.24-.72-.36-2.27-.36-4.66v-114.19c0-2.39,.12-3.94,.36-4.66,.24-.72,1.08-1.63,2.51-2.75,1.43-1.11,2.55-1.79,3.34-2.03,.8-.24,2.63-.36,5.49-.36h69.76c2.87,0,4.7,.12,5.49,.36,.79,.24,1.91,.92,3.34,2.03,1.43,1.12,2.27,2.03,2.51,2.75s.36,2.27,.36,4.66v114.19Z"/>
    <path d="M1618.48,756.82c-3.82-3.18-7.64-4.78-11.46-4.78h-76.44c-3.82,0-7.65,1.59-11.46,4.78l-5.74,4.78c-3.82,3.19-5.73,7.17-5.73,11.94v124.22c0,4.78,1.91,8.76,5.73,11.94l5.74,4.78c3.82,3.19,7.64,4.78,11.46,4.78h76.44c3.82,0,7.65-1.59,11.46-4.78l5.74-4.78c3.82-3.18,5.73-7.17,5.73-11.94v-64.5h-56.38v16.72h36.31v42.76c0,2.39-.12,3.94-.36,4.66-.24,.72-1.08,1.64-2.51,2.75-1.43,1.12-2.55,1.79-3.34,2.03-.8,.24-2.63,.36-5.49,.36h-58.77c-2.87,0-4.7-.12-5.49-.36-.8-.24-1.91-.91-3.34-2.03-1.43-1.11-2.27-2.03-2.51-2.75-.24-.72-.36-2.27-.36-4.66v-114.19c0-2.39,.12-3.94,.36-4.66,.24-.72,1.08-1.63,2.51-2.75,1.43-1.11,2.55-1.79,3.34-2.03,.8-.24,2.63-.36,5.49-.36h58.77c2.87,0,4.7,.12,5.49,.36,.79,.24,1.91,.92,3.34,2.03,1.43,1.12,2.27,2.03,2.51,2.75,.24,.72,.36,2.27,.36,4.66v4.54h20.07v-9.55c0-4.78-1.91-8.76-5.73-11.94l-5.74-4.78Z"/>
    <rect x="1671.75" y="752.04" width="20.07" height="167.22"/>
    <path d="M1813.17,752.04h-28.19l-57.33,167.22h18.22s14.74,0,14.74,0v-13.3h-8.3l44.63-132.66c1.11-2.71,1.67-5.02,1.67-6.93h.96c0,1.91,.56,4.22,1.67,6.93l45.64,132.66h-8.98v13.3h14.74s19.07,0,19.07,0l-58.53-167.22Z"/>
  </g>
  <g>
    <path d="M589.5,1008.59c1.5,0,3.01,.63,4.51,1.88l2.25,1.88c1.5,1.25,2.25,2.82,2.25,4.69v10.32c0,1.88-.75,3.44-2.25,4.69l-2.25,1.88c-1.5,1.25-3,1.88-4.51,1.88h-20.84c-1.5,0-3-.63-4.51-1.88l-2.25-1.88c-1.5-1.25-2.25-2.81-2.25-4.69v-3.75h7.88v1.78c0,.94,.05,1.55,.14,1.83s.42,.64,.98,1.08c.56,.44,1,.7,1.31,.8s1.03,.14,2.16,.14h13.89c1.13,0,1.85-.05,2.16-.14s.75-.36,1.31-.8c.56-.44,.89-.8,.99-1.08s.14-.89,.14-1.83v-7.6c-.06-.5-.44-1.07-1.13-1.69-.56-.44-1-.7-1.31-.8s-1.03-.14-2.16-.14h-16.43c-1.5,0-3-.63-4.51-1.88l-2.25-1.88c-1.5-1.25-2.25-2.81-2.25-4.69v-9.39c0-1.88,.75-3.44,2.25-4.69l2.25-1.88c1.5-1.25,3.01-1.88,4.51-1.88h19.9c1.5,0,3.01,.63,4.51,1.88l2.25,1.88c1.5,1.25,2.25,2.82,2.25,4.69v3.76h-7.88v-1.78c0-.94-.05-1.55-.14-1.83s-.42-.64-.99-1.08c-.56-.44-1-.7-1.31-.8s-1.03-.14-2.16-.14h-12.95c-1.13,0-1.85,.05-2.16,.14s-.75,.36-1.31,.8c-.56,.44-.89,.8-.98,1.08s-.14,.89-.14,1.83v5.44c0,.94,.05,1.55,.14,1.83s.42,.64,.98,1.08c.56,.44,1,.7,1.31,.8s1.03,.14,2.16,.14h16.43Z"/>
    <path d="M646.28,993.38h.38c.06-.56,.66-1.25,1.78-2.06l1.41-1.03c1.13-.69,1.89-1.1,2.3-1.22,.41-.12,1.17-.19,2.3-.19h14.92c1.5,0,3.01,.63,4.51,1.88l2.26,1.88c1.5,1.25,2.25,2.82,2.25,4.69v38.48h-7.89v-36.51c0-.94-.05-1.55-.14-1.83s-.42-.64-.99-1.08c-.56-.44-1-.7-1.31-.8-.32-.09-1.03-.14-2.16-.14h-10.32c-1.13,0-1.89,.06-2.3,.19-.41,.12-1.17,.53-2.3,1.22-1.44,.88-2.19,1.69-2.25,2.44v36.51h-7.88v-36.51c0-.94-.05-1.55-.14-1.83s-.42-.64-.99-1.08c-.56-.44-1-.7-1.31-.8s-1.03-.14-2.16-.14h-9.48c-1.13,0-1.89,.06-2.3,.19s-1.17,.53-2.3,1.22-1.78,1.19-1.97,1.5c-.19,.32-.28,.94-.28,1.88v35.57h-7.88v-36.51c0-.94-.05-1.55-.14-1.83s-.42-.64-.99-1.08c-.56-.44-.89-.8-.99-1.08-.09-.28-.14-.89-.14-1.83v-4.6h3.28c1.13,0,1.89,.08,2.3,.23,.41,.16,.98,.55,1.74,1.17,1,.81,1.5,1.59,1.5,2.34h.38c0-.75,.69-1.53,2.06-2.34,1.13-.69,1.89-1.1,2.3-1.22,.41-.12,1.17-.19,2.3-.19h14.08c1.5,0,3.01,.63,4.51,1.88,1.31,1.19,2,2.06,2.06,2.63Z"/>
    <path d="M722.68,1032.05h-.37c0,.75-.69,1.54-2.06,2.35-1.13,.69-1.89,1.1-2.3,1.22-.41,.13-1.17,.19-2.3,.19h-16.05c-1.5,0-3-.63-4.51-1.88l-2.25-1.88c-1.5-1.25-2.25-2.81-2.25-4.69v-11.26c0-1.88,.75-3.44,2.25-4.69l2.25-1.88c1.5-1.25,3.01-1.88,4.51-1.88h16.8c1.19,0,1.94,.05,2.25,.14,.31,.09,.72,.36,1.22,.8,.75,.63,1.13,1.25,1.13,1.88h.38v-11.17c0-.94-.05-1.55-.14-1.83s-.42-.64-.98-1.08c-.56-.44-1-.7-1.31-.8-.32-.09-1.03-.14-2.16-.14h-15.21c-1.13,0-1.89,.08-2.3,.23-.41,.16-1.17,.7-2.3,1.64l-5.63-4.69,2.25-1.88c1.13-.94,1.89-1.48,2.3-1.64,.41-.16,1.17-.23,2.3-.23h22.06c1.5,0,3,.63,4.51,1.88l2.25,1.88c1.5,1.25,2.25,2.82,2.25,4.69v28.06c0,.94,.05,1.55,.14,1.83s.42,.64,.99,1.08c.56,.44,.89,.8,.98,1.08s.14,.89,.14,1.83v4.6h-3.28c-1.13,0-1.89-.08-2.3-.23s-.99-.55-1.74-1.17c-1-.81-1.5-1.59-1.5-2.35Zm-24.22-13.99v7.32c0,.94,.05,1.55,.14,1.83s.42,.64,.98,1.08c.56,.44,1,.7,1.31,.8s1.03,.14,2.16,.14h11.45c1.13,0,1.89-.06,2.3-.19s1.17-.53,2.3-1.22,1.78-1.19,1.97-1.5c.19-.31,.28-.94,.28-1.88v-6.38c0-.94-.05-1.55-.14-1.83-.09-.28-.42-.64-.98-1.08-.56-.44-1-.7-1.31-.8-.32-.09-1.03-.14-2.16-.14h-13.71c-1.13,0-1.85,.05-2.16,.14s-.75,.36-1.31,.8c-.56,.44-.89,.8-.98,1.08-.09,.28-.14,.89-.14,1.83Z"/>
    <path d="M742.77,988.88h3.28c1.13,0,1.89,.08,2.3,.23,.41,.16,.98,.55,1.74,1.17,1,.81,1.5,1.59,1.5,2.34h.38c0-.75,.69-1.53,2.06-2.34,1.13-.69,1.89-1.1,2.3-1.22,.41-.12,1.17-.19,2.3-.19h8.64c1.5,0,3,.63,4.51,1.88l2.25,1.88-5.63,4.69-1.13-.94c-.56-.44-1-.7-1.31-.8s-1.03-.14-2.16-.14h-4.04c-1.13,0-1.89,.06-2.3,.19s-1.17,.53-2.3,1.22-1.78,1.19-1.97,1.5c-.19,.32-.28,.94-.28,1.88v35.57h-7.88v-36.51c0-.94-.05-1.55-.14-1.83s-.42-.64-.99-1.08c-.56-.44-.89-.8-.99-1.08-.09-.28-.14-.89-.14-1.83v-4.6Z"/>
    <path d="M792.8,975.74v13.14h12.01c.81,.63,1.3,1.11,1.46,1.45,.16,.35,.23,1.24,.23,2.67v2.44h-13.7v29.94c0,.94,.05,1.55,.14,1.83s.42,.64,.99,1.08c.56,.44,1,.7,1.31,.8,.31,.09,1.03,.14,2.16,.14h8.54c.81,.63,1.3,1.11,1.46,1.45,.16,.34,.23,1.24,.23,2.67v2.44h-13.7c-1.5,0-3.01-.63-4.51-1.88l-2.25-1.88c-1.5-1.25-2.25-2.81-2.25-4.69v-31.91h-4.51c-.81-.63-1.3-1.11-1.45-1.45s-.23-1.24-.23-2.67v-2.44h6.2v-13.14h7.88Z"/>
    <path d="M869.57,997.51l-9.29,38.3h-10.23l-13.33-46.93h7.6l10.14,38.95c.31,.94,.47,1.69,.47,2.25h.38c0-.56,.16-1.31,.47-2.25l9.67-38.95h9.57l9.67,38.95c.31,1.25,.47,2,.47,2.25h.37c0-.56,.16-1.31,.47-2.25l10.14-38.95h7.6l-13.33,46.93h-10.23l-9.29-38.3c-.31-1.25-.47-2-.47-2.25h-.38c0,.25-.16,1-.47,2.25Z"/>
    <path d="M943.81,1032.05h-.37c0,.75-.69,1.54-2.06,2.35-1.13,.69-1.89,1.1-2.3,1.22-.41,.13-1.17,.19-2.3,.19h-16.05c-1.5,0-3-.63-4.51-1.88l-2.25-1.88c-1.5-1.25-2.25-2.81-2.25-4.69v-11.26c0-1.88,.75-3.44,2.25-4.69l2.25-1.88c1.5-1.25,3.01-1.88,4.51-1.88h16.8c1.19,0,1.94,.05,2.25,.14,.31,.09,.72,.36,1.22,.8,.75,.63,1.13,1.25,1.13,1.88h.38v-11.17c0-.94-.05-1.55-.14-1.83s-.42-.64-.98-1.08c-.56-.44-1-.7-1.31-.8-.32-.09-1.03-.14-2.16-.14h-15.21c-1.13,0-1.89,.08-2.3,.23-.41,.16-1.17,.7-2.3,1.64l-5.63-4.69,2.25-1.88c1.13-.94,1.89-1.48,2.3-1.64,.41-.16,1.17-.23,2.3-.23h22.06c1.5,0,3,.63,4.51,1.88l2.25,1.88c1.5,1.25,2.25,2.82,2.25,4.69v28.06c0,.94,.05,1.55,.14,1.83s.42,.64,.99,1.08c.56,.44,.89,.8,.98,1.08s.14,.89,.14,1.83v4.6h-3.28c-1.13,0-1.89-.08-2.3-.23s-.99-.55-1.74-1.17c-1-.81-1.5-1.59-1.5-2.35Zm-24.22-13.99v7.32c0,.94,.05,1.55,.14,1.83s.42,.64,.98,1.08c.56,.44,1,.7,1.31,.8s1.03,.14,2.16,.14h11.45c1.13,0,1.89-.06,2.3-.19s1.17-.53,2.3-1.22,1.78-1.19,1.97-1.5c.19-.31,.28-.94,.28-1.88v-6.38c0-.94-.05-1.55-.14-1.83-.09-.28-.42-.64-.98-1.08-.56-.44-1-.7-1.31-.8-.32-.09-1.03-.14-2.16-.14h-13.71c-1.13,0-1.85,.05-2.16,.14s-.75,.36-1.31,.8c-.56,.44-.89,.8-.98,1.08-.09,.28-.14,.89-.14,1.83Z"/>
    <path d="M994.12,1060.21h-27.03v-2.44c0-1.44,.08-2.33,.24-2.67,.16-.35,.64-.83,1.45-1.45h23c1.13,0,1.85-.05,2.16-.14s.75-.36,1.31-.8c.56-.44,.89-.8,.99-1.08,.09-.28,.14-.89,.14-1.83v-18.49h-.38c-.12,.56-.88,1.44-2.25,2.63-1.5,1.25-3,1.88-4.51,1.88h-16.33c-1.5,0-3-.63-4.51-1.88l-2.25-1.88c-1.5-1.25-2.25-2.81-2.25-4.69v-38.48h7.88v36.51c0,.94,.05,1.55,.14,1.83s.42,.64,.98,1.08c.56,.44,1,.7,1.31,.8s1.03,.14,2.16,.14h12.02c1.13,0,1.89-.06,2.3-.19s1.17-.53,2.3-1.22,1.78-1.19,1.97-1.5c.19-.31,.28-.94,.28-1.88v-35.57h7.88v62.88c0,1.88-.75,3.44-2.25,4.69l-2.25,1.88c-1.5,1.25-3,1.88-4.51,1.88Z"/>
    <path d="M1042.27,995.45h-5.07c-.81-.63-1.3-1.11-1.46-1.45-.16-.34-.23-1.24-.23-2.67v-2.44h6.76v-11.83c0-1.88,.75-3.44,2.25-4.69l2.25-1.88c1.5-1.25,3.01-1.88,4.51-1.88h11.27c.81,.63,1.3,1.11,1.45,1.46,.16,.34,.23,1.24,.23,2.67v2.44h-10.04c-1.19,0-2.16,.31-2.91,.94-.56,.44-.89,.8-.98,1.08-.09,.28-.14,.89-.14,1.83v9.86h10.51c.81,.63,1.3,1.11,1.46,1.45,.16,.35,.23,1.24,.23,2.67v2.44h-12.2v40.36h-7.88v-40.36Z"/>
    <path d="M1080.37,988.88h22.53c1.5,0,3,.63,4.51,1.88l2.25,1.88c1.5,1.25,2.25,2.82,2.25,4.69v30.04c0,1.88-.75,3.44-2.25,4.69l-2.25,1.88c-1.5,1.25-3.01,1.88-4.51,1.88h-22.53c-1.5,0-3-.63-4.51-1.88l-2.25-1.88c-1.5-1.25-2.25-2.81-2.25-4.69v-30.04c0-1.88,.75-3.44,2.25-4.69l2.25-1.88c1.5-1.25,3.01-1.88,4.51-1.88Zm23.65,36.51v-26.09c0-.94-.05-1.55-.14-1.83s-.42-.64-.98-1.08c-.56-.44-1-.7-1.31-.8-.32-.09-1.03-.14-2.16-.14h-15.58c-1.13,0-1.85,.05-2.16,.14s-.75,.36-1.31,.8c-.56,.44-.89,.8-.98,1.08-.09,.28-.14,.89-.14,1.83v26.09c0,.94,.05,1.55,.14,1.83,.09,.28,.42,.64,.98,1.08,.56,.44,1,.7,1.31,.8s1.03,.14,2.16,.14h15.58c1.13,0,1.84-.05,2.16-.14,.31-.09,.75-.36,1.31-.8,.56-.44,.89-.8,.98-1.08s.14-.89,.14-1.83Z"/>
    <path d="M1123.27,988.88h3.28c1.13,0,1.89,.08,2.3,.23,.41,.16,.98,.55,1.74,1.17,1,.81,1.5,1.59,1.5,2.34h.38c0-.75,.69-1.53,2.06-2.34,1.13-.69,1.89-1.1,2.3-1.22,.41-.12,1.17-.19,2.3-.19h8.64c1.5,0,3,.63,4.51,1.88l2.25,1.88-5.63,4.69-1.13-.94c-.56-.44-1-.7-1.31-.8s-1.03-.14-2.16-.14h-4.04c-1.13,0-1.89,.06-2.3,.19s-1.17,.53-2.3,1.22-1.78,1.19-1.97,1.5c-.19,.32-.28,.94-.28,1.88v35.57h-7.88v-36.51c0-.94-.05-1.55-.14-1.83s-.42-.64-.99-1.08c-.56-.44-.89-.8-.99-1.08-.09-.28-.14-.89-.14-1.83v-4.6Z"/>
    <path d="M1196.76,975.74v13.14h12.01c.81,.63,1.3,1.11,1.46,1.45,.16,.35,.23,1.24,.23,2.67v2.44h-13.7v29.94c0,.94,.05,1.55,.14,1.83s.42,.64,.99,1.08c.56,.44,1,.7,1.31,.8,.31,.09,1.03,.14,2.16,.14h8.54c.81,.63,1.3,1.11,1.46,1.45,.16,.34,.23,1.24,.23,2.67v2.44h-13.7c-1.5,0-3.01-.63-4.51-1.88l-2.25-1.88c-1.5-1.25-2.25-2.81-2.25-4.69v-31.91h-4.51c-.81-.63-1.3-1.11-1.45-1.45s-.23-1.24-.23-2.67v-2.44h6.2v-13.14h7.88Z"/>
    <path d="M1256.73,1027.36l5.63,4.69-2.25,1.88c-1.13,.94-1.89,1.49-2.3,1.64s-1.17,.23-2.3,.23h-25.06c-1.5,0-3-.63-4.51-1.88l-2.25-1.88c-1.5-1.25-2.25-2.81-2.25-4.69v-30.04c0-1.88,.75-3.44,2.25-4.69l2.25-1.88c1.5-1.25,3.01-1.88,4.51-1.88h21.87c1.25,0,2.75,.63,4.51,1.88l2.35,1.88c1.5,1.13,2.25,2.69,2.25,4.69v19.24h-32.1v8.82c0,.94,.05,1.55,.14,1.83s.42,.64,.98,1.08c.56,.44,1,.7,1.31,.8s1.03,.14,2.16,.14h18.21c1.13,0,1.89-.08,2.3-.24,.41-.16,1.17-.7,2.3-1.64Zm-3.19-16.89v-11.17c0-.94-.05-1.55-.14-1.83s-.42-.64-.99-1.08c-.56-.44-1-.7-1.31-.8s-1.03-.14-2.16-.14h-15.02c-1.13,0-1.85,.05-2.16,.14s-.75,.36-1.31,.8c-.56,.44-.89,.8-.98,1.08s-.14,.89-.14,1.83v11.17h24.22Z"/>
    <path d="M1310.23,1001.08h-7.89v-1.78c0-.94-.05-1.55-.14-1.83s-.42-.64-.99-1.08c-.56-.44-1-.7-1.31-.8s-1.03-.14-2.16-.14h-12.58c-1.13,0-1.85,.05-2.16,.14s-.75,.36-1.31,.8c-.56,.44-.89,.8-.98,1.08s-.14,.89-.14,1.83v26.09c0,.94,.05,1.55,.14,1.83s.42,.64,.98,1.08c.56,.44,1,.7,1.31,.8s1.03,.14,2.16,.14h12.58c1.13,0,1.85-.05,2.16-.14s.75-.36,1.31-.8c.56-.44,.89-.8,.99-1.08s.14-.89,.14-1.83v-1.78h7.89v3.75c0,1.88-.75,3.44-2.26,4.69l-2.25,1.88c-1.5,1.25-3,1.88-4.51,1.88h-19.52c-1.5,0-3-.63-4.51-1.88l-2.25-1.88c-1.5-1.25-2.25-2.81-2.25-4.69v-30.04c0-1.88,.75-3.44,2.25-4.69l2.25-1.88c1.5-1.25,3.01-1.88,4.51-1.88h19.52c1.5,0,3.01,.63,4.51,1.88l2.25,1.88c1.5,1.25,2.26,2.82,2.26,4.69v3.76Z"/>
    <path d="M1334.92,988.88h16.43c1.5,0,3,.63,4.51,1.88l2.25,1.88c1.5,1.25,2.25,2.82,2.25,4.69v38.48h-7.88v-36.51c0-.94-.05-1.55-.14-1.83-.09-.28-.42-.64-.98-1.08-.56-.44-1-.7-1.31-.8-.32-.09-1.03-.14-2.16-.14h-12.02c-1.19,0-1.99,.06-2.39,.19-.41,.12-1.17,.53-2.3,1.22s-1.78,1.19-1.97,1.5c-.19,.32-.28,.94-.28,1.88v35.57h-7.88v-69.46h7.88v26.94h.38c0-.56,.69-1.44,2.06-2.63,1.38-1.19,2.57-1.78,3.57-1.78Z"/>
  </g>
  <g>
    <rect class="cls-1" x="1077.07" y="433.6" width="116.71" height="116.71" rx="14.53" ry="14.53"/>
    <path class="cls-2" d="M955.73,87.02l-225.24,225.24c-2.73,2.73-4.27,6.44-4.27,10.31v213.16c0,8.05,6.53,14.58,14.58,14.58h204.62c8.05,0,14.58-6.53,14.58-14.58v-204.62c0-8.05,6.53-14.58,14.58-14.58h204.62c8.05,0,14.58-6.53,14.58-14.58V97.33c0-8.05-6.53-14.58-14.58-14.58h-213.16c-3.87,0-7.58,1.54-10.31,4.27Z"/>
  </g>
</svg>